<svg width="142" height="39" viewBox="0 0 142 39" fill="none" xmlns="http://www.w3.org/2000/svg">
<path d="M47.2273 16.4545H40.8182C40.7727 15.9242 40.6515 15.4432 40.4545 15.0114C40.2652 14.5795 40 14.2083 39.6591 13.8977C39.3258 13.5795 38.9205 13.3371 38.4432 13.1705C37.9659 12.9962 37.4242 12.9091 36.8182 12.9091C35.7576 12.9091 34.8598 13.1667 34.125 13.6818C33.3977 14.197 32.8447 14.9356 32.4659 15.8977C32.0947 16.8598 31.9091 18.0152 31.9091 19.3636C31.9091 20.7879 32.0985 21.9811 32.4773 22.9432C32.8636 23.8977 33.4205 24.6174 34.1477 25.1023C34.875 25.5795 35.75 25.8182 36.7727 25.8182C37.3561 25.8182 37.8788 25.7462 38.3409 25.6023C38.803 25.4508 39.2045 25.2348 39.5455 24.9545C39.8864 24.6742 40.1629 24.3371 40.375 23.9432C40.5947 23.5417 40.7424 23.0909 40.8182 22.5909L47.2273 22.6364C47.1515 23.6212 46.875 24.625 46.3977 25.6477C45.9205 26.6629 45.2424 27.6023 44.3636 28.4659C43.4924 29.322 42.4129 30.0114 41.125 30.5341C39.8371 31.0568 38.3409 31.3182 36.6364 31.3182C34.5 31.3182 32.5833 30.8598 30.8864 29.9432C29.197 29.0265 27.8598 27.678 26.875 25.8977C25.8977 24.1174 25.4091 21.9394 25.4091 19.3636C25.4091 16.7727 25.9091 14.5909 26.9091 12.8182C27.9091 11.0379 29.2576 9.69318 30.9545 8.78409C32.6515 7.86742 34.5455 7.40909 36.6364 7.40909C38.1061 7.40909 39.4583 7.60985 40.6932 8.01136C41.928 8.41288 43.0114 9 43.9432 9.77273C44.875 10.5379 45.625 11.4811 46.1932 12.6023C46.7614 13.7235 47.1061 15.0076 47.2273 16.4545ZM56.4574 7.72727V31H50.1847V7.72727H56.4574ZM59.6534 31V13.5455H65.9261V31H59.6534ZM62.7898 11.7273C61.9413 11.7273 61.214 11.447 60.608 10.8864C60.0019 10.3258 59.6989 9.65151 59.6989 8.86364C59.6989 8.07576 60.0019 7.40151 60.608 6.84091C61.214 6.2803 61.9413 6 62.7898 6C63.6458 6 64.3731 6.2803 64.9716 6.84091C65.5777 7.40151 65.8807 8.07576 65.8807 8.86364C65.8807 9.65151 65.5777 10.3258 64.9716 10.8864C64.3731 11.447 63.6458 11.7273 62.7898 11.7273ZM75.3949 21.1818V31H69.1222V13.5455H75.0767V16.8636H75.2585C75.6373 15.7576 76.304 14.8902 77.2585 14.2614C78.2206 13.6326 79.3419 13.3182 80.6222 13.3182C81.857 13.3182 82.929 13.6023 83.8381 14.1705C84.7547 14.7311 85.4631 15.5038 85.9631 16.4886C86.4706 17.4735 86.7206 18.5985 86.7131 19.8636V31H80.4403V21.1818C80.4479 20.3182 80.2282 19.6402 79.7812 19.1477C79.3419 18.6553 78.7282 18.4091 77.9403 18.4091C77.4252 18.4091 76.9744 18.5227 76.5881 18.75C76.2093 18.9697 75.9176 19.2879 75.7131 19.7045C75.5085 20.1136 75.4025 20.6061 75.3949 21.1818ZM101.128 23.3636V13.5455H107.401V31H101.446V27.6818H101.264C100.885 28.7955 100.223 29.6667 99.2756 30.2955C98.3286 30.9167 97.2036 31.2273 95.9006 31.2273C94.6809 31.2273 93.6127 30.947 92.696 30.3864C91.7869 29.8258 91.0786 29.053 90.571 28.0682C90.071 27.0833 89.8172 25.9545 89.8097 24.6818V13.5455H96.0824V23.3636C96.09 24.2273 96.3097 24.9053 96.7415 25.3977C97.1809 25.8902 97.7945 26.1364 98.5824 26.1364C99.1051 26.1364 99.5559 26.0265 99.9347 25.8068C100.321 25.5795 100.616 25.2614 100.821 24.8523C101.033 24.4356 101.135 23.9394 101.128 23.3636ZM110.591 31V13.5455H116.682V16.8636H116.864C117.182 15.6364 117.686 14.7386 118.375 14.1705C119.072 13.6023 119.886 13.3182 120.818 13.3182C121.091 13.3182 121.36 13.3409 121.625 13.3864C121.898 13.4242 122.159 13.4811 122.409 13.5568V18.9091C122.098 18.803 121.716 18.7235 121.261 18.6705C120.807 18.6174 120.417 18.5909 120.091 18.5909C119.477 18.5909 118.924 18.7311 118.432 19.0114C117.947 19.2841 117.564 19.6705 117.284 20.1705C117.004 20.6629 116.864 21.2424 116.864 21.9091V31H110.591ZM131.83 31.3182C129.966 31.3182 128.36 30.9621 127.011 30.25C125.67 29.5303 124.636 28.5 123.909 27.1591C123.189 25.8106 122.83 24.197 122.83 22.3182C122.83 20.5152 123.193 18.9394 123.92 17.5909C124.648 16.2424 125.674 15.1932 127 14.4432C128.326 13.6932 129.89 13.3182 131.693 13.3182C133.011 13.3182 134.205 13.5227 135.273 13.9318C136.341 14.3409 137.254 14.9356 138.011 15.7159C138.769 16.4886 139.352 17.428 139.761 18.5341C140.17 19.6402 140.375 20.8864 140.375 22.2727V23.7273H124.784V20.2727H134.602C134.595 19.7727 134.466 19.3333 134.216 18.9545C133.973 18.5682 133.644 18.2689 133.227 18.0568C132.818 17.8371 132.352 17.7273 131.83 17.7273C131.322 17.7273 130.856 17.8371 130.432 18.0568C130.008 18.2689 129.667 18.5644 129.409 18.9432C129.159 19.322 129.027 19.7652 129.011 20.2727V24C129.011 24.5606 129.129 25.0606 129.364 25.5C129.598 25.9394 129.936 26.2841 130.375 26.5341C130.814 26.7841 131.345 26.9091 131.966 26.9091C132.398 26.9091 132.792 26.8485 133.148 26.7273C133.511 26.6061 133.822 26.4318 134.08 26.2045C134.337 25.9697 134.527 25.6894 134.648 25.3636H140.375C140.178 26.5758 139.712 27.6288 138.977 28.5227C138.242 29.4091 137.269 30.0985 136.057 30.5909C134.852 31.0758 133.443 31.3182 131.83 31.3182Z" fill="black"/>
<path d="M2.59506 33.7608C2.41669 33.6397 2.30876 33.4864 2.27127 33.3011C1.49077 29.3357 0.735823 25.3583 0.00644392 21.3688C-0.00605324 21.2985 -0.000372973 21.2409 0.0234852 21.1961L9.047 4.58431C9.062 4.55662 9.08353 4.53354 9.10951 4.5173C9.13549 4.50106 9.16503 4.49222 9.19526 4.49163C11.5231 4.49042 13.8567 4.49102 16.1959 4.49345C16.5385 4.49345 20.1053 0.644437 20.6199 0.0410987C20.6631 -0.00978534 20.7097 -0.01342 20.7597 0.0301949C20.9386 0.186481 21.0511 0.362758 21.2471 0.482699C23.3273 1.76328 25.3717 3.1111 27.3803 4.52616C27.4536 4.57755 27.505 4.65714 27.5235 4.74787C28.3301 8.63686 29.1464 12.5301 29.9723 16.4276C30.0269 16.682 30.0008 16.9073 29.894 17.1036C26.8969 22.5954 23.8953 28.0848 20.8892 33.5718C20.8585 33.6264 20.8136 33.6597 20.7546 33.6718C20.3745 33.7481 19.8888 33.6772 19.6162 33.6809C17.5246 33.7063 15.433 33.6936 13.3415 33.6427C13.0467 33.6354 12.7297 33.7681 12.5184 34.0371C11.5038 35.3237 10.4836 36.6037 9.4577 37.877C9.40712 37.9397 9.33757 37.9816 9.26124 37.9952C9.18491 38.0088 9.10666 37.9933 9.04018 37.9515C6.86227 36.5946 4.71389 35.1977 2.59506 33.7608ZM19.9485 1.40406C19.1203 2.26546 18.2665 3.09656 17.3871 3.89738C17.2395 4.03186 17.1724 4.1833 17.1861 4.3517C17.1895 4.39473 17.2079 4.43478 17.2377 4.46377C17.2674 4.49277 17.3062 4.50857 17.3462 4.50799L22.382 4.44802C22.4101 4.44753 22.4376 4.43924 22.4618 4.42397C22.486 4.4087 22.5061 4.38698 22.52 4.36094C22.5339 4.3349 22.5413 4.30544 22.5413 4.27546C22.5413 4.24548 22.534 4.21601 22.5201 4.18996L20.775 0.991539C20.683 0.823137 20.5682 0.803147 20.4308 0.931568C20.2581 1.0927 20.0973 1.2502 19.9485 1.40406ZM26.3118 4.50072C26.3289 4.50096 26.3456 4.49523 26.3594 4.48439C26.3732 4.47356 26.3832 4.45822 26.3881 4.44072C26.3929 4.42321 26.3922 4.4045 26.3861 4.38745C26.3801 4.37039 26.3689 4.35592 26.3544 4.34625L21.6288 1.30593C21.614 1.29624 21.5965 1.29208 21.5792 1.29411C21.5619 1.29615 21.5458 1.30426 21.5333 1.31716C21.5208 1.33007 21.5127 1.34704 21.5102 1.36541C21.5078 1.38377 21.5111 1.40248 21.5197 1.4186L23.0893 4.34261C23.0959 4.35484 23.1053 4.36509 23.1166 4.3724C23.1279 4.37971 23.1408 4.38384 23.154 4.38441L26.3118 4.50072ZM2.74502 18.412C7.0395 14.0094 11.3493 9.60365 15.6745 5.19492C15.6955 5.17295 15.7089 5.14161 15.7129 5.10499C15.7168 5.06837 15.7112 5.02816 15.6966 4.98957C15.6677 4.91506 15.5637 4.86963 15.4802 4.86963C13.4841 4.89628 11.5254 4.90597 9.60426 4.8987C9.52663 4.8982 9.45026 4.91963 9.38291 4.9608C9.31556 5.00198 9.25964 5.06144 9.22082 5.13313L1.4652 19.3588C1.45574 19.3773 1.45206 19.3984 1.45472 19.4192C1.45737 19.44 1.46621 19.4594 1.47995 19.4744C1.49368 19.4895 1.51158 19.4994 1.53101 19.5028C1.55044 19.5062 1.57038 19.5029 1.5879 19.4933C2.09063 19.2007 2.39738 18.77 2.74502 18.412ZM2.35307 19.3716C2.21844 19.5097 2.04462 19.6005 1.88102 19.6878C1.84125 19.7084 1.82989 19.7405 1.84693 19.7841C2.00201 20.1857 4.11687 18.7101 4.36909 18.5538C10.7938 14.6091 17.2162 10.6486 23.6363 6.67237C23.6662 6.6539 23.6923 6.62914 23.713 6.5996C23.7337 6.57005 23.7486 6.53633 23.7567 6.50049C23.7648 6.46464 23.7661 6.42741 23.7603 6.39104C23.7545 6.35468 23.7419 6.31994 23.7232 6.28893C23.4539 5.84369 23.137 4.91506 22.5763 4.90779C20.6767 4.88114 18.7772 4.86296 16.8776 4.85327C16.6595 4.85206 16.4243 4.98048 16.1721 5.23854C11.5561 9.93925 6.94975 14.6503 2.35307 19.3716ZM23.7249 4.8878C23.6947 4.88783 23.6649 4.89647 23.6389 4.91279C23.6128 4.92912 23.5913 4.95254 23.5767 4.9806C23.562 5.00866 23.5548 5.04033 23.5557 5.07228C23.5566 5.10423 23.5656 5.13529 23.5818 5.16221L24.197 6.18897C24.2413 6.26409 24.2975 6.27681 24.3657 6.22714C24.9349 5.81885 25.5376 5.48508 26.1738 5.22581C26.2076 5.21204 26.2358 5.1861 26.2535 5.15249C26.2713 5.11888 26.2775 5.07971 26.271 5.04176C26.2645 5.00381 26.2458 4.96946 26.2181 4.94466C26.1904 4.91987 26.1554 4.90618 26.1192 4.90597L23.7249 4.8878ZM27.0702 5.07134C27.0361 5.0241 24.8684 6.43794 24.6281 6.57242C24.6024 6.58657 24.5798 6.60619 24.5614 6.63008C24.5431 6.65397 24.5296 6.68163 24.5216 6.71138C24.5136 6.74113 24.5114 6.77235 24.5151 6.80313C24.5187 6.83392 24.5282 6.86362 24.5429 6.89045L28.9942 14.941C29.0362 15.0161 29.0856 15.0234 29.1424 14.9628L29.2276 14.872C29.2428 14.8559 29.2539 14.8359 29.2599 14.814C29.2659 14.792 29.2665 14.7688 29.2617 14.7466C28.5653 11.5966 27.8984 8.44544 27.261 5.29305C27.2389 5.18583 27.1622 5.10224 27.0702 5.07134ZM24.1339 7.02129C23.9521 7.00796 23.7953 7.04189 23.6636 7.12306C16.831 11.3149 10.0064 15.5213 3.18981 19.7423C2.94782 19.8913 1.80603 20.2093 1.90317 20.7382C1.91226 20.7866 1.93953 20.8072 1.98497 20.7999L29.1884 16.5493C29.2172 16.5447 29.2444 16.5327 29.2678 16.5142C29.2911 16.4957 29.3099 16.4714 29.3223 16.4434C29.3348 16.4154 29.3406 16.3845 29.3392 16.3536C29.3379 16.3226 29.3294 16.2925 29.3145 16.2658L24.1527 7.03401C24.1505 7.03061 24.1478 7.02772 24.1445 7.02552C24.1413 7.02333 24.1377 7.02189 24.1339 7.02129ZM28.9669 17.0218C28.9441 16.9963 28.9156 16.9774 28.8843 16.9669C28.853 16.9564 28.8198 16.9547 28.788 16.9618C27.8882 17.169 26.9872 17.3417 26.0852 17.4798C17.8654 18.741 9.61448 20.0058 1.33228 21.2743C1.30238 21.2791 1.27462 21.2937 1.2528 21.316C1.23097 21.3383 1.21615 21.3672 1.21036 21.3989C1.20458 21.4305 1.20811 21.4633 1.22048 21.4927C1.23285 21.5221 1.25345 21.5468 1.27945 21.5632L14.9945 29.9573C15.0727 30.0049 15.1628 30.0252 15.2524 30.0155C15.3419 30.0057 15.4264 29.9663 15.4938 29.9027C19.9167 25.7327 24.3975 21.5487 28.9362 17.3507C29.0544 17.2417 29.0646 17.1321 28.9669 17.0218ZM15.758 30.188C15.7416 30.2034 15.7289 30.2228 15.721 30.2445C15.713 30.2662 15.7101 30.2896 15.7125 30.3128C15.7148 30.3359 15.7223 30.3581 15.7344 30.3775C15.7465 30.397 15.7627 30.413 15.7818 30.4243L20.4887 33.2265C20.52 33.245 20.5568 33.2496 20.5912 33.2394C20.6256 33.2292 20.6549 33.205 20.6728 33.172L28.8323 18.3175C28.8483 18.2879 28.854 18.2532 28.8484 18.2195C28.8427 18.1858 28.8261 18.1553 28.8015 18.1334C28.7769 18.1114 28.7458 18.0995 28.7137 18.0996C28.6816 18.0997 28.6506 18.1119 28.6261 18.134L15.758 30.188ZM14.7082 30.2589L1.02212 21.8994C0.992852 21.8815 0.958816 21.8745 0.9254 21.8795C0.891984 21.8846 0.861097 21.9013 0.837628 21.9272C0.814158 21.9531 0.799448 21.9865 0.795825 22.0223C0.792201 22.0581 0.799872 22.0941 0.817623 22.1248C2.75695 25.4922 4.5804 28.9341 6.45327 32.3433C6.78899 32.954 6.70378 33.4283 7.57972 33.3883C9.15436 33.3144 10.729 33.3126 12.3036 33.3828C12.774 33.4028 14.3981 31.1294 14.773 30.6733C14.7978 30.6432 14.816 30.6077 14.8263 30.5691C14.8366 30.5306 14.8388 30.49 14.8326 30.4504C14.8264 30.4108 14.812 30.3731 14.7905 30.3399C14.769 30.3068 14.7409 30.2792 14.7082 30.2589ZM0.87386 23.0679C0.861556 23.0569 0.846273 23.0494 0.830096 23.0464C0.813919 23.0434 0.797636 23.0451 0.78347 23.0513C0.769304 23.0575 0.757944 23.0678 0.750942 23.0808C0.74394 23.0939 0.741636 23.1091 0.744344 23.1243L2.71435 33.1557C2.72998 33.235 2.77236 33.3054 2.83337 33.3533C2.89439 33.4013 2.96973 33.4235 3.04496 33.4155C4.05155 33.315 5.08427 33.3101 6.14311 33.401C6.25673 33.4107 6.34932 33.395 6.42089 33.3538C6.43521 33.3452 6.4478 33.3337 6.4579 33.3199C6.46801 33.3062 6.47542 33.2904 6.47972 33.2736C6.48401 33.2569 6.48508 33.2394 6.48288 33.2222C6.48068 33.2051 6.47525 33.1886 6.46691 33.1738C4.7173 30.0396 3.03246 26.9054 1.41237 23.7712C1.28059 23.5168 1.10108 23.2824 0.87386 23.0679ZM19.3589 33.0121C18.0501 32.284 16.7606 31.5141 15.4904 30.7023C15.4448 30.673 15.3908 30.6621 15.3381 30.6714C15.2853 30.6807 15.2373 30.7097 15.2024 30.7532L13.2188 33.2229C13.2051 33.2395 13.1964 33.2601 13.1937 33.282C13.1911 33.3039 13.1946 33.3262 13.2038 33.3461C13.2131 33.366 13.2277 33.3827 13.2458 33.3941C13.2639 33.4055 13.2847 33.411 13.3057 33.4101C15.3336 33.2974 17.3604 33.3011 19.3861 33.421C19.4068 33.4222 19.4274 33.4182 19.4463 33.4094C19.4653 33.4005 19.482 33.3871 19.4953 33.3702C19.5085 33.3533 19.5179 33.3333 19.5226 33.3118C19.5273 33.2903 19.5273 33.268 19.5225 33.2465C19.4997 33.1387 19.4452 33.0606 19.3589 33.0121ZM3.77604 33.6954C3.74064 33.6939 3.70576 33.7049 3.67687 33.7268C3.64798 33.7487 3.62671 33.7802 3.61638 33.8163C3.60606 33.8525 3.60726 33.8912 3.61981 33.9266C3.63236 33.9619 3.65553 33.9918 3.68572 34.0116L8.17106 36.9429C8.20141 36.9631 8.23722 36.9718 8.27279 36.9678C8.30835 36.9637 8.34163 36.9471 8.36731 36.9206C8.39299 36.894 8.4096 36.8591 8.41449 36.8213C8.41938 36.7835 8.41228 36.7451 8.39431 36.7121L6.91851 33.9117C6.90495 33.8866 6.88564 33.8656 6.86239 33.8506C6.83914 33.8357 6.81271 33.8273 6.78558 33.8263L3.77604 33.6954ZM8.12335 33.7408C7.94782 33.739 7.60869 33.6336 7.39226 33.7626C7.36992 33.7761 7.35041 33.7943 7.33493 33.8161C7.31945 33.8379 7.30833 33.8629 7.30226 33.8894C7.29619 33.916 7.2953 33.9436 7.29964 33.9706C7.30398 33.9975 7.31347 34.0233 7.3275 34.0461C7.90124 35.002 8.43123 35.9785 8.91748 36.9756C9.04529 37.2409 9.30092 37.5208 9.54461 37.1973C10.3138 36.1736 11.1471 35.1462 12.0446 34.1152C12.072 34.084 12.0902 34.0449 12.0969 34.0028C12.1036 33.9607 12.0986 33.9173 12.0825 33.8782C12.0663 33.8391 12.0397 33.806 12.006 33.7828C11.9723 33.7597 11.933 33.7476 11.8929 33.7481C10.6705 33.7554 9.41396 33.753 8.12335 33.7408Z" fill="black"/>
</svg>
