<?xml version="1.0" standalone="no"?>
<!DOCTYPE svg PUBLIC "-//W3C//DTD SVG 20010904//EN"
 "http://www.w3.org/TR/2001/REC-SVG-20010904/DTD/svg10.dtd">
<svg version="1.0" xmlns="http://www.w3.org/2000/svg"
 width="484.000000pt" height="127.000000pt" viewBox="0 0 484.000000 127.000000"
 preserveAspectRatio="xMidYMid meet">

<g transform="translate(0.000000,127.000000) scale(0.100000,-0.100000)"
fill="#000000" stroke="none">
<path d="M115 1089 c-3 -8 -4 -210 -3 -449 l3 -435 125 -3 c193 -4 266 24 315
121 25 51 25 51 25 329 0 255 -2 282 -19 316 -23 44 -63 83 -110 107 -46 23
-328 35 -336 14z m293 -142 l27 -27 3 -258 c2 -243 1 -259 -18 -290 -24 -39
-59 -54 -119 -50 l-46 3 -3 315 c-1 173 0 321 3 329 4 10 20 12 66 9 48 -4 65
-9 87 -31z"/>
<path d="M973 1088 c-11 -15 -193 -833 -193 -866 0 -20 5 -22 65 -22 l64 0 9
38 c5 20 13 55 18 77 l9 40 105 0 105 0 9 -40 c5 -22 13 -57 18 -77 l9 -38 64
0 c35 0 66 3 68 8 2 4 -29 156 -70 337 -40 182 -83 374 -95 428 -11 54 -27
105 -35 113 -19 18 -136 19 -150 2z m124 -399 c42 -222 42 -216 -3 -225 -35
-6 -111 -1 -121 10 -9 9 71 396 81 393 5 -2 25 -82 43 -178z"/>
<path d="M1444 1086 c-3 -7 -4 -33 -2 -57 l3 -44 87 -3 88 -3 2 -387 3 -387
67 -3 68 -3 2 388 3 388 93 3 93 3 -3 57 -3 57 -248 3 c-205 2 -248 0 -253
-12z"/>
<path d="M2185 1088 c-3 -7 -4 -209 -3 -448 l3 -435 65 0 65 0 3 193 2 193 46
-3 46 -3 20 -65 c11 -36 37 -122 59 -192 l40 -128 69 0 c39 0 70 4 70 9 0 5
-27 92 -60 194 -33 101 -60 191 -60 198 0 8 15 26 33 40 84 67 109 220 54 329
-52 104 -116 130 -319 130 -94 0 -130 -3 -133 -12z m269 -118 c42 -16 66 -66
66 -137 0 -56 -3 -65 -34 -98 -33 -35 -36 -36 -98 -33 l-63 3 -3 124 c-1 69 0
131 2 138 6 16 92 18 130 3z"/>
<path d="M2895 1088 c-3 -7 -4 -209 -3 -448 l3 -435 223 -3 222 -2 0 60 0 59
-152 3 -153 3 0 130 0 130 93 3 92 3 0 59 0 59 -92 3 -93 3 0 130 0 130 153 3
153 3 -3 57 -3 57 -218 3 c-168 2 -219 0 -222 -10z"/>
<path d="M3575 1088 c-3 -7 -4 -209 -3 -448 l3 -435 220 0 220 0 3 57 3 57
-153 3 -153 3 0 130 0 130 95 5 95 5 0 55 0 55 -95 5 -95 5 0 130 0 130 153 3
153 3 -3 57 -3 57 -218 3 c-168 2 -219 0 -222 -10z"/>
<path d="M4228 1095 c-4 -5 76 -206 151 -378 12 -27 21 -57 21 -66 0 -10 -40
-113 -89 -230 -63 -151 -86 -214 -76 -217 7 -3 38 -4 70 -2 l57 3 56 148 c31
81 59 147 62 147 4 0 15 -21 25 -47 42 -113 67 -180 82 -215 l16 -38 64 0 c47
0 63 4 63 14 0 7 -40 109 -90 225 l-89 212 25 57 c54 122 154 369 154 380 0
13 -107 17 -126 4 -6 -4 -20 -32 -31 -62 -11 -30 -35 -94 -53 -142 -17 -49
-35 -88 -40 -88 -4 0 -31 64 -60 143 -30 78 -58 145 -64 149 -13 9 -120 11
-128 3z"/>
</g>
</svg>
