<svg width="23" height="32" viewBox="0 0 23 32" fill="none" xmlns="http://www.w3.org/2000/svg">
<path d="M21.8878 12C21.8878 5.9249 17.2912 1 11.6212 1C5.95112 1 1.35449 5.9249 1.35449 12C1.35449 20 11.6212 30 11.6212 30C11.6212 30 21.8878 20 21.8878 12Z" fill="#6393F2"/>
<path d="M11.6212 30L11.3595 30.2686L11.6212 30.5235L11.8828 30.2686L11.6212 30ZM11.6212 30C11.8828 30.2686 11.8829 30.2685 11.883 30.2684L11.8835 30.268L11.8851 30.2664L11.8911 30.2605L11.914 30.238C11.934 30.2183 11.9634 30.1891 12.0016 30.1509C12.078 30.0745 12.1896 29.9619 12.3313 29.8159C12.6147 29.5241 13.0188 29.0991 13.5033 28.5643C14.4719 27.495 15.764 25.9849 17.0569 24.2218C18.3491 22.4597 19.6472 20.4381 20.6235 18.3461C21.5983 16.2573 22.2628 14.0757 22.2628 12C22.2628 5.74258 17.5223 0.625 11.6212 0.625C5.72007 0.625 0.979492 5.74258 0.979492 12C0.979492 14.0757 1.64405 16.2573 2.61884 18.3461C3.59509 20.4381 4.89321 22.4597 6.18543 24.2218C7.47837 25.9849 8.77048 27.495 9.73908 28.5643C10.2236 29.0991 10.6276 29.5241 10.911 29.8159C11.0527 29.9619 11.1643 30.0745 11.2407 30.1509C11.2789 30.1891 11.3083 30.2183 11.3283 30.238L11.3512 30.2605L11.3572 30.2664L11.3588 30.268L11.3593 30.2684C11.3594 30.2685 11.3595 30.2686 11.6212 30Z" stroke="white" stroke-opacity="0.6" stroke-width="0.75"/>
<path d="M21.8878 12C21.8878 5.9249 17.2911 1 11.6211 1C11.6211 13 11.6211 30 11.6211 30C11.6211 30 21.8878 20 21.8878 12Z" fill="#6393F2"/>
<path d="M11.6209 19.3334C15.401 19.3334 18.4653 16.0501 18.4653 12C18.4653 7.94989 15.401 4.66663 11.6209 4.66663C7.84075 4.66663 4.77637 7.94989 4.77637 12C4.77637 16.0501 7.84075 19.3334 11.6209 19.3334Z" fill="white"/>
<path d="M15.0437 7.8546V16.1455H12.9182V12.8992H10.3244V16.1455H8.19922V7.8546H10.3244V10.9141H12.9182V7.8546H15.0437Z" fill="#6393F2"/>
<path d="M12.9179 7.8546V10.914H11.6211V12.8992H12.9179V16.1455H15.0433V7.8546H12.9179Z" fill="#6393F2"/>
</svg>
