<svg width="38" height="41" viewBox="0 0 38 41" fill="none" xmlns="http://www.w3.org/2000/svg">
<path d="M33.4135 15.4138C33.4135 7.45332 26.9601 1 18.9997 1C11.0393 1 4.58594 7.45332 4.58594 15.4138C4.58594 25.8966 18.9997 39 18.9997 39C18.9997 39 33.4135 25.8966 33.4135 15.4138Z" fill="#6393F2"/>
<path d="M18.9997 39C19.252 39.2775 19.2521 39.2774 19.2523 39.2772L19.2529 39.2767L19.255 39.2747L19.2633 39.2671L19.2951 39.238C19.323 39.2123 19.3641 39.1743 19.4175 39.1244C19.5243 39.0247 19.6805 38.8776 19.8789 38.6869C20.2758 38.3055 20.842 37.7496 21.521 37.05C22.8786 35.6512 24.6896 33.6757 26.5015 31.3696C28.3126 29.0646 30.1304 26.4221 31.4968 23.6893C32.8614 20.96 33.7885 18.1157 33.7885 15.4138C33.7885 7.24621 27.1672 0.625 18.9997 0.625C10.8322 0.625 4.21094 7.24621 4.21094 15.4138C4.21094 18.1157 5.13804 20.96 6.50268 23.6893C7.86909 26.4221 9.6869 29.0646 11.498 31.3696C13.3099 33.6757 15.1209 35.6512 16.4785 37.05C17.1575 37.7496 17.7237 38.3055 18.1206 38.6869C18.319 38.8776 18.4752 39.0247 18.582 39.1244C18.6354 39.1743 18.6765 39.2123 18.7044 39.238L18.7362 39.2671L18.7444 39.2747L18.7466 39.2767L18.7472 39.2772C18.7474 39.2774 18.7475 39.2775 18.9997 39ZM18.9997 39L19.252 39.2775L18.9997 39.5068L18.7475 39.2775L18.9997 39Z" stroke="white" stroke-opacity="0.6" stroke-width="0.75"/>
<path d="M33.4138 15.4138C33.4138 7.45332 26.9604 1 19 1C19 16.7241 19 39 19 39C19 39 33.4138 25.8966 33.4138 15.4138Z" fill="#6393F2"/>
<path d="M18.9999 25.0231C24.3069 25.0231 28.6091 20.7209 28.6091 15.4138C28.6091 10.1068 24.3069 5.80457 18.9999 5.80457C13.6928 5.80457 9.39062 10.1068 9.39062 15.4138C9.39062 20.7209 13.6928 25.0231 18.9999 25.0231Z" fill="white"/>
<path d="M23.8046 9.98187V20.8458H20.8205V16.592H17.179V20.8458H14.1953V9.98187H17.179V13.9909H20.8205V9.98187H23.8046Z" fill="#6393F2"/>
<path d="M20.8206 9.98187V13.9908H19V16.592H20.8206V20.8458H23.8046V9.98187H20.8206Z" fill="#6393F2"/>
</svg>
