<svg width="27" height="37" viewBox="0 0 27 37" fill="none" xmlns="http://www.w3.org/2000/svg">
<path d="M25.2759 13.8966C25.2759 6.77402 19.8414 1 13.1379 1C6.43444 1 1 6.77402 1 13.8966C1 23.2759 13.1379 35 13.1379 35C13.1379 35 25.2759 23.2759 25.2759 13.8966Z" fill="#3B70DA"/>
<path d="M13.1379 35C13.3985 35.2697 13.3986 35.2696 13.3987 35.2695L13.3992 35.269L13.4011 35.2672L13.4081 35.2604L13.435 35.2341C13.4586 35.2111 13.4932 35.177 13.5383 35.1323C13.6284 35.0429 13.7601 34.9111 13.9274 34.7403C14.262 34.3987 14.7391 33.9009 15.3114 33.2745C16.4554 32.0221 17.9815 30.2533 19.5084 28.1885C21.0346 26.1247 22.5668 23.7582 23.7186 21.3106C24.869 18.8661 25.6509 16.3178 25.6509 13.8966C25.6509 6.58866 20.0696 0.625 13.1379 0.625C6.20624 0.625 0.625 6.58866 0.625 13.8966C0.625 16.3178 1.40689 18.8661 2.55725 21.3106C3.70909 23.7582 5.24128 26.1247 6.76746 28.1885C8.29438 30.2533 9.82045 32.0221 10.9645 33.2745C11.5367 33.9009 12.0139 34.3987 12.3485 34.7403C12.5158 34.9111 12.6474 35.0429 12.7376 35.1323C12.7826 35.177 12.8173 35.2111 12.8409 35.2341L12.8678 35.2604L12.8748 35.2672L12.8766 35.269L12.8772 35.2695C12.8773 35.2696 12.8774 35.2697 13.1379 35ZM13.1379 35L13.3985 35.2697L13.1379 35.5214L12.8774 35.2697L13.1379 35Z" stroke="white" stroke-opacity="0.6" stroke-width="0.75"/>
<path d="M25.2756 13.8966C25.2756 6.77402 19.8412 1 13.1377 1C13.1377 15.069 13.1377 35 13.1377 35C13.1377 35 25.2756 23.2759 25.2756 13.8966Z" fill="#3B70DA"/>
<path d="M13.1379 22.4943C17.607 22.4943 21.2299 18.645 21.2299 13.8966C21.2299 9.14815 17.607 5.29881 13.1379 5.29881C8.66881 5.29881 5.0459 9.14815 5.0459 13.8966C5.0459 18.645 8.66881 22.4943 13.1379 22.4943Z" fill="white"/>
<path d="M17.1838 9.03642V18.7568H14.6709V14.9508H11.6044V18.7568H9.0918V9.03642H11.6044V12.6234H14.6709V9.03642H17.1838Z" fill="#0348D1"/>
<path d="M14.6708 9.03642V12.6233H13.1377V14.9508H14.6708V18.7568H17.1837V9.03642H14.6708Z" fill="#0348D1"/>
</svg>
