<svg width="28" height="33" viewBox="0 0 28 33" fill="none" xmlns="http://www.w3.org/2000/svg">
<path d="M24.6203 12.3793C24.6203 6.09473 19.8652 1 13.9996 1C8.13404 1 3.37891 6.09473 3.37891 12.3793C3.37891 20.6552 13.9996 31 13.9996 31C13.9996 31 24.6203 20.6552 24.6203 12.3793Z" fill="#6393F2"/>
<path d="M13.9996 31L13.7379 31.2686L13.9996 31.5235L14.2613 31.2686L13.9996 31ZM13.9996 31C14.2613 31.2686 14.2613 31.2685 14.2615 31.2684L14.2619 31.268L14.2636 31.2663L14.2698 31.2603L14.2934 31.237C14.3141 31.2166 14.3445 31.1865 14.384 31.147C14.4631 31.068 14.5784 30.9515 14.725 30.8006C15.018 30.4988 15.4359 30.0592 15.937 29.5061C16.9388 28.4002 18.2752 26.8383 19.6124 25.0149C20.9488 23.1924 22.2912 21.1019 23.3006 18.9388C24.3086 16.7788 24.9953 14.524 24.9953 12.3793C24.9953 5.91241 20.0962 0.625 13.9996 0.625C7.90299 0.625 3.00391 5.91241 3.00391 12.3793C3.00391 14.524 3.69059 16.7788 4.69857 18.9388C5.70801 21.1019 7.05039 23.1924 8.38685 25.0149C9.72405 26.8383 11.0604 28.4002 12.0622 29.5061C12.5633 30.0592 12.9812 30.4988 13.2742 30.8006C13.4208 30.9515 13.5362 31.068 13.6152 31.147C13.6547 31.1865 13.6851 31.2166 13.7058 31.237L13.7294 31.2603L13.7356 31.2663L13.7373 31.268L13.7377 31.2684C13.7379 31.2685 13.7379 31.2686 13.9996 31Z" stroke="white" stroke-opacity="0.6" stroke-width="0.75"/>
<path d="M24.6207 12.3793C24.6207 6.09473 19.8656 1 14 1C14 13.4138 14 31 14 31C14 31 24.6207 20.6552 24.6207 12.3793Z" fill="#6393F2"/>
<path d="M13.9994 19.9656C17.9099 19.9656 21.0799 16.5691 21.0799 12.3793C21.0799 8.18954 17.9099 4.79306 13.9994 4.79306C10.089 4.79306 6.91895 8.18954 6.91895 12.3793C6.91895 16.5691 10.089 19.9656 13.9994 19.9656Z" fill="white"/>
<path d="M17.5405 8.09096V16.6677H15.3417V13.3095H12.6585V16.6677H10.46V8.09096H12.6585V11.256H15.3417V8.09096H17.5405Z" fill="#6393F2"/>
<path d="M15.3415 8.09096V11.2559H14V13.3095H15.3415V16.6677H17.5402V8.09096H15.3415Z" fill="#6393F2"/>
</svg>
