<svg width="31" height="31" viewBox="0 0 31 31" fill="none" xmlns="http://www.w3.org/2000/svg">
<path d="M24 15.5C24 20.1944 20.1944 24 15.5 24C10.8056 24 7 20.1944 7 15.5C7 10.8056 10.8056 7 15.5 7C20.1944 7 24 10.8056 24 15.5Z" fill="white"/>
<path d="M21.875 15.5C21.875 19.0208 19.0208 21.875 15.5 21.875C11.9792 21.875 9.125 19.0208 9.125 15.5C9.125 11.9792 11.9792 9.125 15.5 9.125C19.0208 9.125 21.875 11.9792 21.875 15.5Z" fill="#4285F4"/>
<path d="M15.5 27.5C22.1274 27.5 27.5 22.1274 27.5 15.5C27.5 8.87258 22.1274 3.5 15.5 3.5C8.87258 3.5 3.5 8.87258 3.5 15.5C3.5 22.1274 8.87258 27.5 15.5 27.5Z" stroke="#4285F4" stroke-opacity="0.2" stroke-width="7"/>
</svg>
