<svg width="19" height="19" viewBox="0 0 19 19" fill="none" xmlns="http://www.w3.org/2000/svg">
<path d="M17 9.5C17 13.6421 13.6421 17 9.5 17C5.35786 17 2 13.6421 2 9.5C2 5.35786 5.35786 2 9.5 2C13.6421 2 17 5.35786 17 9.5Z" fill="white"/>
<path d="M15.125 9.5C15.125 12.6066 12.6066 15.125 9.5 15.125C6.3934 15.125 3.875 12.6066 3.875 9.5C3.875 6.3934 6.3934 3.875 9.5 3.875C12.6066 3.875 15.125 6.3934 15.125 9.5Z" fill="#4285F4"/>
<path d="M9.5 18C14.1944 18 18 14.1944 18 9.5C18 4.80558 14.1944 1 9.5 1C4.80558 1 1 4.80558 1 9.5C1 14.1944 4.80558 18 9.5 18Z" stroke="#4285F4" stroke-opacity="0.2" stroke-width="2"/>
</svg>
