<svg width="32" height="40" viewBox="0 0 32 40" fill="none" xmlns="http://www.w3.org/2000/svg">
<mask id="path-1-outside-1_211_20062" maskUnits="userSpaceOnUse" x="0" y="-1" width="32" height="41" fill="black">
<rect fill="white" y="-1" width="32" height="41"/>
<path d="M3.59506 34.7608C3.41669 34.6397 3.30876 34.4864 3.27127 34.3011C2.49077 30.3357 1.73582 26.3583 1.00644 22.3688C0.993947 22.2985 0.999627 22.2409 1.02349 22.1961L10.047 5.58431C10.062 5.55662 10.0835 5.53354 10.1095 5.5173C10.1355 5.50106 10.165 5.49222 10.1953 5.49163C12.5231 5.49042 14.8567 5.49102 17.1959 5.49345C17.5385 5.49345 21.1053 1.64444 21.6199 1.0411C21.6631 0.990215 21.7097 0.98658 21.7597 1.03019C21.9386 1.18648 22.0511 1.36276 22.2471 1.4827C24.3273 2.76328 26.3717 4.1111 28.3803 5.52616C28.4536 5.57755 28.505 5.65714 28.5235 5.74787C29.3301 9.63686 30.1464 13.5301 30.9723 17.4276C31.0269 17.682 31.0008 17.9073 30.894 18.1036C27.8969 23.5954 24.8953 29.0848 21.8892 34.5718C21.8585 34.6264 21.8136 34.6597 21.7546 34.6718C21.3745 34.7481 20.8888 34.6772 20.6162 34.6809C18.5246 34.7063 16.433 34.6936 14.3415 34.6427C14.0467 34.6354 13.7297 34.7681 13.5184 35.0371C12.5038 36.3237 11.4836 37.6037 10.4577 38.877C10.4071 38.9397 10.3376 38.9816 10.2612 38.9952C10.1849 39.0088 10.1067 38.9933 10.0402 38.9515C7.86227 37.5946 5.71389 36.1977 3.59506 34.7608ZM20.9485 2.40406C20.1203 3.26546 19.2665 4.09656 18.3871 4.89738C18.2395 5.03186 18.1724 5.1833 18.1861 5.3517C18.1895 5.39473 18.2079 5.43478 18.2377 5.46377C18.2674 5.49277 18.3062 5.50857 18.3462 5.50799L23.382 5.44802C23.4101 5.44753 23.4376 5.43924 23.4618 5.42397C23.486 5.4087 23.5061 5.38698 23.52 5.36094C23.5339 5.3349 23.5413 5.30544 23.5413 5.27546C23.5413 5.24548 23.534 5.21601 23.5201 5.18996L21.775 1.99154C21.683 1.82314 21.5682 1.80315 21.4308 1.93157C21.2581 2.0927 21.0973 2.2502 20.9485 2.40406ZM27.3118 5.50072C27.3289 5.50096 27.3456 5.49523 27.3594 5.48439C27.3732 5.47356 27.3832 5.45822 27.3881 5.44072C27.3929 5.42321 27.3922 5.4045 27.3861 5.38745C27.3801 5.37039 27.3689 5.35592 27.3544 5.34625L22.6288 2.30593C22.614 2.29624 22.5965 2.29208 22.5792 2.29411C22.5619 2.29615 22.5458 2.30426 22.5333 2.31716C22.5208 2.33007 22.5127 2.34704 22.5102 2.36541C22.5078 2.38377 22.5111 2.40248 22.5197 2.4186L24.0893 5.34261C24.0959 5.35484 24.1053 5.36509 24.1166 5.3724C24.1279 5.37971 24.1408 5.38384 24.154 5.38441L27.3118 5.50072ZM3.74502 19.412C8.0395 15.0094 12.3493 10.6037 16.6745 6.19492C16.6955 6.17295 16.7089 6.14161 16.7129 6.10499C16.7168 6.06837 16.7112 6.02816 16.6966 5.98957C16.6677 5.91506 16.5637 5.86963 16.4802 5.86963C14.4841 5.89628 12.5254 5.90597 10.6043 5.8987C10.5266 5.8982 10.4503 5.91963 10.3829 5.9608C10.3156 6.00198 10.2596 6.06144 10.2208 6.13313L2.4652 20.3588C2.45574 20.3773 2.45206 20.3984 2.45472 20.4192C2.45737 20.44 2.46621 20.4594 2.47995 20.4744C2.49368 20.4895 2.51158 20.4994 2.53101 20.5028C2.55044 20.5062 2.57038 20.5029 2.5879 20.4933C3.09063 20.2007 3.39738 19.77 3.74502 19.412ZM3.35307 20.3716C3.21844 20.5097 3.04462 20.6005 2.88102 20.6878C2.84125 20.7084 2.82989 20.7405 2.84693 20.7841C3.00201 21.1857 5.11687 19.7101 5.36909 19.5538C11.7938 15.6091 18.2162 11.6486 24.6363 7.67237C24.6662 7.6539 24.6923 7.62914 24.713 7.5996C24.7337 7.57005 24.7486 7.53633 24.7567 7.50049C24.7648 7.46464 24.7661 7.42741 24.7603 7.39104C24.7545 7.35468 24.7419 7.31994 24.7232 7.28893C24.4539 6.84369 24.137 5.91506 23.5763 5.90779C21.6767 5.88114 19.7772 5.86296 17.8776 5.85327C17.6595 5.85206 17.4243 5.98048 17.1721 6.23854C12.5561 10.9392 7.94975 15.6503 3.35307 20.3716ZM24.7249 5.8878C24.6947 5.88783 24.6649 5.89647 24.6389 5.91279C24.6128 5.92912 24.5913 5.95254 24.5767 5.9806C24.562 6.00866 24.5548 6.04033 24.5557 6.07228C24.5566 6.10423 24.5656 6.13529 24.5818 6.16221L25.197 7.18897C25.2413 7.26409 25.2975 7.27681 25.3657 7.22714C25.9349 6.81885 26.5376 6.48508 27.1738 6.22581C27.2076 6.21204 27.2358 6.1861 27.2535 6.15249C27.2713 6.11888 27.2775 6.07971 27.271 6.04176C27.2645 6.00381 27.2458 5.96946 27.2181 5.94466C27.1904 5.91987 27.1554 5.90618 27.1192 5.90597L24.7249 5.8878ZM28.0702 6.07134C28.0361 6.0241 25.8684 7.43794 25.6281 7.57242C25.6024 7.58657 25.5798 7.60619 25.5614 7.63008C25.5431 7.65397 25.5296 7.68163 25.5216 7.71138C25.5136 7.74113 25.5114 7.77235 25.5151 7.80313C25.5187 7.83392 25.5282 7.86362 25.5429 7.89045L29.9942 15.941C30.0362 16.0161 30.0856 16.0234 30.1424 15.9628L30.2276 15.872C30.2428 15.8559 30.2539 15.8359 30.2599 15.814C30.2659 15.792 30.2665 15.7688 30.2617 15.7466C29.5653 12.5966 28.8984 9.44544 28.261 6.29305C28.2389 6.18583 28.1622 6.10224 28.0702 6.07134ZM25.1339 8.02129C24.9521 8.00796 24.7953 8.04189 24.6636 8.12306C17.831 12.3149 11.0064 16.5213 4.18981 20.7423C3.94782 20.8913 2.80603 21.2093 2.90317 21.7382C2.91226 21.7866 2.93953 21.8072 2.98497 21.7999L30.1884 17.5493C30.2172 17.5447 30.2444 17.5327 30.2678 17.5142C30.2911 17.4957 30.3099 17.4714 30.3223 17.4434C30.3348 17.4154 30.3406 17.3845 30.3392 17.3536C30.3379 17.3226 30.3294 17.2925 30.3145 17.2658L25.1527 8.03401C25.1505 8.03061 25.1478 8.02772 25.1445 8.02552C25.1413 8.02333 25.1377 8.02189 25.1339 8.02129ZM29.9669 18.0218C29.9441 17.9963 29.9156 17.9774 29.8843 17.9669C29.853 17.9564 29.8198 17.9547 29.788 17.9618C28.8882 18.169 27.9872 18.3417 27.0852 18.4798C18.8654 19.741 10.6145 21.0058 2.33228 22.2743C2.30238 22.2791 2.27462 22.2937 2.2528 22.316C2.23097 22.3383 2.21615 22.3672 2.21036 22.3989C2.20458 22.4305 2.20811 22.4633 2.22048 22.4927C2.23285 22.5221 2.25345 22.5468 2.27945 22.5632L15.9945 30.9573C16.0727 31.0049 16.1628 31.0252 16.2524 31.0155C16.3419 31.0057 16.4264 30.9663 16.4938 30.9027C20.9167 26.7327 25.3975 22.5487 29.9362 18.3507C30.0544 18.2417 30.0646 18.1321 29.9669 18.0218ZM16.758 31.188C16.7416 31.2034 16.7289 31.2228 16.721 31.2445C16.713 31.2662 16.7101 31.2896 16.7125 31.3128C16.7148 31.3359 16.7223 31.3581 16.7344 31.3775C16.7465 31.397 16.7627 31.413 16.7818 31.4243L21.4887 34.2265C21.52 34.245 21.5568 34.2496 21.5912 34.2394C21.6256 34.2292 21.6549 34.205 21.6728 34.172L29.8323 19.3175C29.8483 19.2879 29.854 19.2532 29.8484 19.2195C29.8427 19.1858 29.8261 19.1553 29.8015 19.1334C29.7769 19.1114 29.7458 19.0995 29.7137 19.0996C29.6816 19.0997 29.6506 19.1119 29.6261 19.134L16.758 31.188ZM15.7082 31.2589L2.02212 22.8994C1.99285 22.8815 1.95882 22.8745 1.9254 22.8795C1.89198 22.8846 1.8611 22.9013 1.83763 22.9272C1.81416 22.9531 1.79945 22.9865 1.79582 23.0223C1.7922 23.0581 1.79987 23.0941 1.81762 23.1248C3.75695 26.4922 5.5804 29.9341 7.45327 33.3433C7.78899 33.954 7.70378 34.4283 8.57972 34.3883C10.1544 34.3144 11.729 34.3126 13.3036 34.3828C13.774 34.4028 15.3981 32.1294 15.773 31.6733C15.7978 31.6432 15.816 31.6077 15.8263 31.5691C15.8366 31.5306 15.8388 31.49 15.8326 31.4504C15.8264 31.4108 15.812 31.3731 15.7905 31.3399C15.769 31.3068 15.7409 31.2792 15.7082 31.2589ZM1.87386 24.0679C1.86156 24.0569 1.84627 24.0494 1.8301 24.0464C1.81392 24.0434 1.79764 24.0451 1.78347 24.0513C1.7693 24.0575 1.75794 24.0678 1.75094 24.0808C1.74394 24.0939 1.74164 24.1091 1.74434 24.1243L3.71435 34.1557C3.72998 34.235 3.77236 34.3054 3.83337 34.3533C3.89439 34.4013 3.96973 34.4235 4.04496 34.4155C5.05155 34.315 6.08427 34.3101 7.14311 34.401C7.25673 34.4107 7.34932 34.395 7.42089 34.3538C7.43521 34.3452 7.4478 34.3337 7.4579 34.3199C7.46801 34.3062 7.47542 34.2904 7.47972 34.2736C7.48401 34.2569 7.48508 34.2394 7.48288 34.2222C7.48068 34.2051 7.47525 34.1886 7.46691 34.1738C5.7173 31.0396 4.03246 27.9054 2.41237 24.7712C2.28059 24.5168 2.10108 24.2824 1.87386 24.0679ZM20.3589 34.0121C19.0501 33.284 17.7606 32.5141 16.4904 31.7023C16.4448 31.673 16.3908 31.6621 16.3381 31.6714C16.2853 31.6807 16.2373 31.7097 16.2024 31.7532L14.2188 34.2229C14.2051 34.2395 14.1964 34.2601 14.1937 34.282C14.1911 34.3039 14.1946 34.3262 14.2038 34.3461C14.2131 34.366 14.2277 34.3827 14.2458 34.3941C14.2639 34.4055 14.2847 34.411 14.3057 34.4101C16.3336 34.2974 18.3604 34.3011 20.3861 34.421C20.4068 34.4222 20.4274 34.4182 20.4463 34.4094C20.4653 34.4005 20.482 34.3871 20.4953 34.3702C20.5085 34.3533 20.5179 34.3333 20.5226 34.3118C20.5273 34.2903 20.5273 34.268 20.5225 34.2465C20.4997 34.1387 20.4452 34.0606 20.3589 34.0121ZM4.77604 34.6954C4.74064 34.6939 4.70576 34.7049 4.67687 34.7268C4.64798 34.7487 4.62671 34.7802 4.61638 34.8163C4.60606 34.8525 4.60726 34.8912 4.61981 34.9266C4.63236 34.9619 4.65553 34.9918 4.68572 35.0116L9.17106 37.9429C9.20141 37.9631 9.23722 37.9718 9.27279 37.9678C9.30835 37.9637 9.34163 37.9471 9.36731 37.9206C9.39299 37.894 9.4096 37.8591 9.41449 37.8213C9.41938 37.7835 9.41228 37.7451 9.39431 37.7121L7.91851 34.9117C7.90495 34.8866 7.88564 34.8656 7.86239 34.8506C7.83914 34.8357 7.81271 34.8273 7.78558 34.8263L4.77604 34.6954ZM9.12335 34.7408C8.94782 34.739 8.60869 34.6336 8.39226 34.7626C8.36992 34.7761 8.35041 34.7943 8.33493 34.8161C8.31945 34.8379 8.30833 34.8629 8.30226 34.8894C8.29619 34.916 8.2953 34.9436 8.29964 34.9706C8.30398 34.9975 8.31347 35.0233 8.3275 35.0461C8.90124 36.002 9.43123 36.9785 9.91748 37.9756C10.0453 38.2409 10.3009 38.5208 10.5446 38.1973C11.3138 37.1736 12.1471 36.1462 13.0446 35.1152C13.072 35.084 13.0902 35.0449 13.0969 35.0028C13.1036 34.9607 13.0986 34.9173 13.0825 34.8782C13.0663 34.8391 13.0397 34.806 13.006 34.7828C12.9723 34.7597 12.933 34.7476 12.8929 34.7481C11.6705 34.7554 10.414 34.753 9.12335 34.7408Z"/>
</mask>
<path d="M3.59506 34.7608C3.41669 34.6397 3.30876 34.4864 3.27127 34.3011C2.49077 30.3357 1.73582 26.3583 1.00644 22.3688C0.993947 22.2985 0.999627 22.2409 1.02349 22.1961L10.047 5.58431C10.062 5.55662 10.0835 5.53354 10.1095 5.5173C10.1355 5.50106 10.165 5.49222 10.1953 5.49163C12.5231 5.49042 14.8567 5.49102 17.1959 5.49345C17.5385 5.49345 21.1053 1.64444 21.6199 1.0411C21.6631 0.990215 21.7097 0.98658 21.7597 1.03019C21.9386 1.18648 22.0511 1.36276 22.2471 1.4827C24.3273 2.76328 26.3717 4.1111 28.3803 5.52616C28.4536 5.57755 28.505 5.65714 28.5235 5.74787C29.3301 9.63686 30.1464 13.5301 30.9723 17.4276C31.0269 17.682 31.0008 17.9073 30.894 18.1036C27.8969 23.5954 24.8953 29.0848 21.8892 34.5718C21.8585 34.6264 21.8136 34.6597 21.7546 34.6718C21.3745 34.7481 20.8888 34.6772 20.6162 34.6809C18.5246 34.7063 16.433 34.6936 14.3415 34.6427C14.0467 34.6354 13.7297 34.7681 13.5184 35.0371C12.5038 36.3237 11.4836 37.6037 10.4577 38.877C10.4071 38.9397 10.3376 38.9816 10.2612 38.9952C10.1849 39.0088 10.1067 38.9933 10.0402 38.9515C7.86227 37.5946 5.71389 36.1977 3.59506 34.7608ZM20.9485 2.40406C20.1203 3.26546 19.2665 4.09656 18.3871 4.89738C18.2395 5.03186 18.1724 5.1833 18.1861 5.3517C18.1895 5.39473 18.2079 5.43478 18.2377 5.46377C18.2674 5.49277 18.3062 5.50857 18.3462 5.50799L23.382 5.44802C23.4101 5.44753 23.4376 5.43924 23.4618 5.42397C23.486 5.4087 23.5061 5.38698 23.52 5.36094C23.5339 5.3349 23.5413 5.30544 23.5413 5.27546C23.5413 5.24548 23.534 5.21601 23.5201 5.18996L21.775 1.99154C21.683 1.82314 21.5682 1.80315 21.4308 1.93157C21.2581 2.0927 21.0973 2.2502 20.9485 2.40406ZM27.3118 5.50072C27.3289 5.50096 27.3456 5.49523 27.3594 5.48439C27.3732 5.47356 27.3832 5.45822 27.3881 5.44072C27.3929 5.42321 27.3922 5.4045 27.3861 5.38745C27.3801 5.37039 27.3689 5.35592 27.3544 5.34625L22.6288 2.30593C22.614 2.29624 22.5965 2.29208 22.5792 2.29411C22.5619 2.29615 22.5458 2.30426 22.5333 2.31716C22.5208 2.33007 22.5127 2.34704 22.5102 2.36541C22.5078 2.38377 22.5111 2.40248 22.5197 2.4186L24.0893 5.34261C24.0959 5.35484 24.1053 5.36509 24.1166 5.3724C24.1279 5.37971 24.1408 5.38384 24.154 5.38441L27.3118 5.50072ZM3.74502 19.412C8.0395 15.0094 12.3493 10.6037 16.6745 6.19492C16.6955 6.17295 16.7089 6.14161 16.7129 6.10499C16.7168 6.06837 16.7112 6.02816 16.6966 5.98957C16.6677 5.91506 16.5637 5.86963 16.4802 5.86963C14.4841 5.89628 12.5254 5.90597 10.6043 5.8987C10.5266 5.8982 10.4503 5.91963 10.3829 5.9608C10.3156 6.00198 10.2596 6.06144 10.2208 6.13313L2.4652 20.3588C2.45574 20.3773 2.45206 20.3984 2.45472 20.4192C2.45737 20.44 2.46621 20.4594 2.47995 20.4744C2.49368 20.4895 2.51158 20.4994 2.53101 20.5028C2.55044 20.5062 2.57038 20.5029 2.5879 20.4933C3.09063 20.2007 3.39738 19.77 3.74502 19.412ZM3.35307 20.3716C3.21844 20.5097 3.04462 20.6005 2.88102 20.6878C2.84125 20.7084 2.82989 20.7405 2.84693 20.7841C3.00201 21.1857 5.11687 19.7101 5.36909 19.5538C11.7938 15.6091 18.2162 11.6486 24.6363 7.67237C24.6662 7.6539 24.6923 7.62914 24.713 7.5996C24.7337 7.57005 24.7486 7.53633 24.7567 7.50049C24.7648 7.46464 24.7661 7.42741 24.7603 7.39104C24.7545 7.35468 24.7419 7.31994 24.7232 7.28893C24.4539 6.84369 24.137 5.91506 23.5763 5.90779C21.6767 5.88114 19.7772 5.86296 17.8776 5.85327C17.6595 5.85206 17.4243 5.98048 17.1721 6.23854C12.5561 10.9392 7.94975 15.6503 3.35307 20.3716ZM24.7249 5.8878C24.6947 5.88783 24.6649 5.89647 24.6389 5.91279C24.6128 5.92912 24.5913 5.95254 24.5767 5.9806C24.562 6.00866 24.5548 6.04033 24.5557 6.07228C24.5566 6.10423 24.5656 6.13529 24.5818 6.16221L25.197 7.18897C25.2413 7.26409 25.2975 7.27681 25.3657 7.22714C25.9349 6.81885 26.5376 6.48508 27.1738 6.22581C27.2076 6.21204 27.2358 6.1861 27.2535 6.15249C27.2713 6.11888 27.2775 6.07971 27.271 6.04176C27.2645 6.00381 27.2458 5.96946 27.2181 5.94466C27.1904 5.91987 27.1554 5.90618 27.1192 5.90597L24.7249 5.8878ZM28.0702 6.07134C28.0361 6.0241 25.8684 7.43794 25.6281 7.57242C25.6024 7.58657 25.5798 7.60619 25.5614 7.63008C25.5431 7.65397 25.5296 7.68163 25.5216 7.71138C25.5136 7.74113 25.5114 7.77235 25.5151 7.80313C25.5187 7.83392 25.5282 7.86362 25.5429 7.89045L29.9942 15.941C30.0362 16.0161 30.0856 16.0234 30.1424 15.9628L30.2276 15.872C30.2428 15.8559 30.2539 15.8359 30.2599 15.814C30.2659 15.792 30.2665 15.7688 30.2617 15.7466C29.5653 12.5966 28.8984 9.44544 28.261 6.29305C28.2389 6.18583 28.1622 6.10224 28.0702 6.07134ZM25.1339 8.02129C24.9521 8.00796 24.7953 8.04189 24.6636 8.12306C17.831 12.3149 11.0064 16.5213 4.18981 20.7423C3.94782 20.8913 2.80603 21.2093 2.90317 21.7382C2.91226 21.7866 2.93953 21.8072 2.98497 21.7999L30.1884 17.5493C30.2172 17.5447 30.2444 17.5327 30.2678 17.5142C30.2911 17.4957 30.3099 17.4714 30.3223 17.4434C30.3348 17.4154 30.3406 17.3845 30.3392 17.3536C30.3379 17.3226 30.3294 17.2925 30.3145 17.2658L25.1527 8.03401C25.1505 8.03061 25.1478 8.02772 25.1445 8.02552C25.1413 8.02333 25.1377 8.02189 25.1339 8.02129ZM29.9669 18.0218C29.9441 17.9963 29.9156 17.9774 29.8843 17.9669C29.853 17.9564 29.8198 17.9547 29.788 17.9618C28.8882 18.169 27.9872 18.3417 27.0852 18.4798C18.8654 19.741 10.6145 21.0058 2.33228 22.2743C2.30238 22.2791 2.27462 22.2937 2.2528 22.316C2.23097 22.3383 2.21615 22.3672 2.21036 22.3989C2.20458 22.4305 2.20811 22.4633 2.22048 22.4927C2.23285 22.5221 2.25345 22.5468 2.27945 22.5632L15.9945 30.9573C16.0727 31.0049 16.1628 31.0252 16.2524 31.0155C16.3419 31.0057 16.4264 30.9663 16.4938 30.9027C20.9167 26.7327 25.3975 22.5487 29.9362 18.3507C30.0544 18.2417 30.0646 18.1321 29.9669 18.0218ZM16.758 31.188C16.7416 31.2034 16.7289 31.2228 16.721 31.2445C16.713 31.2662 16.7101 31.2896 16.7125 31.3128C16.7148 31.3359 16.7223 31.3581 16.7344 31.3775C16.7465 31.397 16.7627 31.413 16.7818 31.4243L21.4887 34.2265C21.52 34.245 21.5568 34.2496 21.5912 34.2394C21.6256 34.2292 21.6549 34.205 21.6728 34.172L29.8323 19.3175C29.8483 19.2879 29.854 19.2532 29.8484 19.2195C29.8427 19.1858 29.8261 19.1553 29.8015 19.1334C29.7769 19.1114 29.7458 19.0995 29.7137 19.0996C29.6816 19.0997 29.6506 19.1119 29.6261 19.134L16.758 31.188ZM15.7082 31.2589L2.02212 22.8994C1.99285 22.8815 1.95882 22.8745 1.9254 22.8795C1.89198 22.8846 1.8611 22.9013 1.83763 22.9272C1.81416 22.9531 1.79945 22.9865 1.79582 23.0223C1.7922 23.0581 1.79987 23.0941 1.81762 23.1248C3.75695 26.4922 5.5804 29.9341 7.45327 33.3433C7.78899 33.954 7.70378 34.4283 8.57972 34.3883C10.1544 34.3144 11.729 34.3126 13.3036 34.3828C13.774 34.4028 15.3981 32.1294 15.773 31.6733C15.7978 31.6432 15.816 31.6077 15.8263 31.5691C15.8366 31.5306 15.8388 31.49 15.8326 31.4504C15.8264 31.4108 15.812 31.3731 15.7905 31.3399C15.769 31.3068 15.7409 31.2792 15.7082 31.2589ZM1.87386 24.0679C1.86156 24.0569 1.84627 24.0494 1.8301 24.0464C1.81392 24.0434 1.79764 24.0451 1.78347 24.0513C1.7693 24.0575 1.75794 24.0678 1.75094 24.0808C1.74394 24.0939 1.74164 24.1091 1.74434 24.1243L3.71435 34.1557C3.72998 34.235 3.77236 34.3054 3.83337 34.3533C3.89439 34.4013 3.96973 34.4235 4.04496 34.4155C5.05155 34.315 6.08427 34.3101 7.14311 34.401C7.25673 34.4107 7.34932 34.395 7.42089 34.3538C7.43521 34.3452 7.4478 34.3337 7.4579 34.3199C7.46801 34.3062 7.47542 34.2904 7.47972 34.2736C7.48401 34.2569 7.48508 34.2394 7.48288 34.2222C7.48068 34.2051 7.47525 34.1886 7.46691 34.1738C5.7173 31.0396 4.03246 27.9054 2.41237 24.7712C2.28059 24.5168 2.10108 24.2824 1.87386 24.0679ZM20.3589 34.0121C19.0501 33.284 17.7606 32.5141 16.4904 31.7023C16.4448 31.673 16.3908 31.6621 16.3381 31.6714C16.2853 31.6807 16.2373 31.7097 16.2024 31.7532L14.2188 34.2229C14.2051 34.2395 14.1964 34.2601 14.1937 34.282C14.1911 34.3039 14.1946 34.3262 14.2038 34.3461C14.2131 34.366 14.2277 34.3827 14.2458 34.3941C14.2639 34.4055 14.2847 34.411 14.3057 34.4101C16.3336 34.2974 18.3604 34.3011 20.3861 34.421C20.4068 34.4222 20.4274 34.4182 20.4463 34.4094C20.4653 34.4005 20.482 34.3871 20.4953 34.3702C20.5085 34.3533 20.5179 34.3333 20.5226 34.3118C20.5273 34.2903 20.5273 34.268 20.5225 34.2465C20.4997 34.1387 20.4452 34.0606 20.3589 34.0121ZM4.77604 34.6954C4.74064 34.6939 4.70576 34.7049 4.67687 34.7268C4.64798 34.7487 4.62671 34.7802 4.61638 34.8163C4.60606 34.8525 4.60726 34.8912 4.61981 34.9266C4.63236 34.9619 4.65553 34.9918 4.68572 35.0116L9.17106 37.9429C9.20141 37.9631 9.23722 37.9718 9.27279 37.9678C9.30835 37.9637 9.34163 37.9471 9.36731 37.9206C9.39299 37.894 9.4096 37.8591 9.41449 37.8213C9.41938 37.7835 9.41228 37.7451 9.39431 37.7121L7.91851 34.9117C7.90495 34.8866 7.88564 34.8656 7.86239 34.8506C7.83914 34.8357 7.81271 34.8273 7.78558 34.8263L4.77604 34.6954ZM9.12335 34.7408C8.94782 34.739 8.60869 34.6336 8.39226 34.7626C8.36992 34.7761 8.35041 34.7943 8.33493 34.8161C8.31945 34.8379 8.30833 34.8629 8.30226 34.8894C8.29619 34.916 8.2953 34.9436 8.29964 34.9706C8.30398 34.9975 8.31347 35.0233 8.3275 35.0461C8.90124 36.002 9.43123 36.9785 9.91748 37.9756C10.0453 38.2409 10.3009 38.5208 10.5446 38.1973C11.3138 37.1736 12.1471 36.1462 13.0446 35.1152C13.072 35.084 13.0902 35.0449 13.0969 35.0028C13.1036 34.9607 13.0986 34.9173 13.0825 34.8782C13.0663 34.8391 13.0397 34.806 13.006 34.7828C12.9723 34.7597 12.933 34.7476 12.8929 34.7481C11.6705 34.7554 10.414 34.753 9.12335 34.7408Z" fill="#11988A"/>
<path d="M3.59506 34.7608C3.41669 34.6397 3.30876 34.4864 3.27127 34.3011C2.49077 30.3357 1.73582 26.3583 1.00644 22.3688C0.993947 22.2985 0.999627 22.2409 1.02349 22.1961L10.047 5.58431C10.062 5.55662 10.0835 5.53354 10.1095 5.5173C10.1355 5.50106 10.165 5.49222 10.1953 5.49163C12.5231 5.49042 14.8567 5.49102 17.1959 5.49345C17.5385 5.49345 21.1053 1.64444 21.6199 1.0411C21.6631 0.990215 21.7097 0.98658 21.7597 1.03019C21.9386 1.18648 22.0511 1.36276 22.2471 1.4827C24.3273 2.76328 26.3717 4.1111 28.3803 5.52616C28.4536 5.57755 28.505 5.65714 28.5235 5.74787C29.3301 9.63686 30.1464 13.5301 30.9723 17.4276C31.0269 17.682 31.0008 17.9073 30.894 18.1036C27.8969 23.5954 24.8953 29.0848 21.8892 34.5718C21.8585 34.6264 21.8136 34.6597 21.7546 34.6718C21.3745 34.7481 20.8888 34.6772 20.6162 34.6809C18.5246 34.7063 16.433 34.6936 14.3415 34.6427C14.0467 34.6354 13.7297 34.7681 13.5184 35.0371C12.5038 36.3237 11.4836 37.6037 10.4577 38.877C10.4071 38.9397 10.3376 38.9816 10.2612 38.9952C10.1849 39.0088 10.1067 38.9933 10.0402 38.9515C7.86227 37.5946 5.71389 36.1977 3.59506 34.7608ZM20.9485 2.40406C20.1203 3.26546 19.2665 4.09656 18.3871 4.89738C18.2395 5.03186 18.1724 5.1833 18.1861 5.3517C18.1895 5.39473 18.2079 5.43478 18.2377 5.46377C18.2674 5.49277 18.3062 5.50857 18.3462 5.50799L23.382 5.44802C23.4101 5.44753 23.4376 5.43924 23.4618 5.42397C23.486 5.4087 23.5061 5.38698 23.52 5.36094C23.5339 5.3349 23.5413 5.30544 23.5413 5.27546C23.5413 5.24548 23.534 5.21601 23.5201 5.18996L21.775 1.99154C21.683 1.82314 21.5682 1.80315 21.4308 1.93157C21.2581 2.0927 21.0973 2.2502 20.9485 2.40406ZM27.3118 5.50072C27.3289 5.50096 27.3456 5.49523 27.3594 5.48439C27.3732 5.47356 27.3832 5.45822 27.3881 5.44072C27.3929 5.42321 27.3922 5.4045 27.3861 5.38745C27.3801 5.37039 27.3689 5.35592 27.3544 5.34625L22.6288 2.30593C22.614 2.29624 22.5965 2.29208 22.5792 2.29411C22.5619 2.29615 22.5458 2.30426 22.5333 2.31716C22.5208 2.33007 22.5127 2.34704 22.5102 2.36541C22.5078 2.38377 22.5111 2.40248 22.5197 2.4186L24.0893 5.34261C24.0959 5.35484 24.1053 5.36509 24.1166 5.3724C24.1279 5.37971 24.1408 5.38384 24.154 5.38441L27.3118 5.50072ZM3.74502 19.412C8.0395 15.0094 12.3493 10.6037 16.6745 6.19492C16.6955 6.17295 16.7089 6.14161 16.7129 6.10499C16.7168 6.06837 16.7112 6.02816 16.6966 5.98957C16.6677 5.91506 16.5637 5.86963 16.4802 5.86963C14.4841 5.89628 12.5254 5.90597 10.6043 5.8987C10.5266 5.8982 10.4503 5.91963 10.3829 5.9608C10.3156 6.00198 10.2596 6.06144 10.2208 6.13313L2.4652 20.3588C2.45574 20.3773 2.45206 20.3984 2.45472 20.4192C2.45737 20.44 2.46621 20.4594 2.47995 20.4744C2.49368 20.4895 2.51158 20.4994 2.53101 20.5028C2.55044 20.5062 2.57038 20.5029 2.5879 20.4933C3.09063 20.2007 3.39738 19.77 3.74502 19.412ZM3.35307 20.3716C3.21844 20.5097 3.04462 20.6005 2.88102 20.6878C2.84125 20.7084 2.82989 20.7405 2.84693 20.7841C3.00201 21.1857 5.11687 19.7101 5.36909 19.5538C11.7938 15.6091 18.2162 11.6486 24.6363 7.67237C24.6662 7.6539 24.6923 7.62914 24.713 7.5996C24.7337 7.57005 24.7486 7.53633 24.7567 7.50049C24.7648 7.46464 24.7661 7.42741 24.7603 7.39104C24.7545 7.35468 24.7419 7.31994 24.7232 7.28893C24.4539 6.84369 24.137 5.91506 23.5763 5.90779C21.6767 5.88114 19.7772 5.86296 17.8776 5.85327C17.6595 5.85206 17.4243 5.98048 17.1721 6.23854C12.5561 10.9392 7.94975 15.6503 3.35307 20.3716ZM24.7249 5.8878C24.6947 5.88783 24.6649 5.89647 24.6389 5.91279C24.6128 5.92912 24.5913 5.95254 24.5767 5.9806C24.562 6.00866 24.5548 6.04033 24.5557 6.07228C24.5566 6.10423 24.5656 6.13529 24.5818 6.16221L25.197 7.18897C25.2413 7.26409 25.2975 7.27681 25.3657 7.22714C25.9349 6.81885 26.5376 6.48508 27.1738 6.22581C27.2076 6.21204 27.2358 6.1861 27.2535 6.15249C27.2713 6.11888 27.2775 6.07971 27.271 6.04176C27.2645 6.00381 27.2458 5.96946 27.2181 5.94466C27.1904 5.91987 27.1554 5.90618 27.1192 5.90597L24.7249 5.8878ZM28.0702 6.07134C28.0361 6.0241 25.8684 7.43794 25.6281 7.57242C25.6024 7.58657 25.5798 7.60619 25.5614 7.63008C25.5431 7.65397 25.5296 7.68163 25.5216 7.71138C25.5136 7.74113 25.5114 7.77235 25.5151 7.80313C25.5187 7.83392 25.5282 7.86362 25.5429 7.89045L29.9942 15.941C30.0362 16.0161 30.0856 16.0234 30.1424 15.9628L30.2276 15.872C30.2428 15.8559 30.2539 15.8359 30.2599 15.814C30.2659 15.792 30.2665 15.7688 30.2617 15.7466C29.5653 12.5966 28.8984 9.44544 28.261 6.29305C28.2389 6.18583 28.1622 6.10224 28.0702 6.07134ZM25.1339 8.02129C24.9521 8.00796 24.7953 8.04189 24.6636 8.12306C17.831 12.3149 11.0064 16.5213 4.18981 20.7423C3.94782 20.8913 2.80603 21.2093 2.90317 21.7382C2.91226 21.7866 2.93953 21.8072 2.98497 21.7999L30.1884 17.5493C30.2172 17.5447 30.2444 17.5327 30.2678 17.5142C30.2911 17.4957 30.3099 17.4714 30.3223 17.4434C30.3348 17.4154 30.3406 17.3845 30.3392 17.3536C30.3379 17.3226 30.3294 17.2925 30.3145 17.2658L25.1527 8.03401C25.1505 8.03061 25.1478 8.02772 25.1445 8.02552C25.1413 8.02333 25.1377 8.02189 25.1339 8.02129ZM29.9669 18.0218C29.9441 17.9963 29.9156 17.9774 29.8843 17.9669C29.853 17.9564 29.8198 17.9547 29.788 17.9618C28.8882 18.169 27.9872 18.3417 27.0852 18.4798C18.8654 19.741 10.6145 21.0058 2.33228 22.2743C2.30238 22.2791 2.27462 22.2937 2.2528 22.316C2.23097 22.3383 2.21615 22.3672 2.21036 22.3989C2.20458 22.4305 2.20811 22.4633 2.22048 22.4927C2.23285 22.5221 2.25345 22.5468 2.27945 22.5632L15.9945 30.9573C16.0727 31.0049 16.1628 31.0252 16.2524 31.0155C16.3419 31.0057 16.4264 30.9663 16.4938 30.9027C20.9167 26.7327 25.3975 22.5487 29.9362 18.3507C30.0544 18.2417 30.0646 18.1321 29.9669 18.0218ZM16.758 31.188C16.7416 31.2034 16.7289 31.2228 16.721 31.2445C16.713 31.2662 16.7101 31.2896 16.7125 31.3128C16.7148 31.3359 16.7223 31.3581 16.7344 31.3775C16.7465 31.397 16.7627 31.413 16.7818 31.4243L21.4887 34.2265C21.52 34.245 21.5568 34.2496 21.5912 34.2394C21.6256 34.2292 21.6549 34.205 21.6728 34.172L29.8323 19.3175C29.8483 19.2879 29.854 19.2532 29.8484 19.2195C29.8427 19.1858 29.8261 19.1553 29.8015 19.1334C29.7769 19.1114 29.7458 19.0995 29.7137 19.0996C29.6816 19.0997 29.6506 19.1119 29.6261 19.134L16.758 31.188ZM15.7082 31.2589L2.02212 22.8994C1.99285 22.8815 1.95882 22.8745 1.9254 22.8795C1.89198 22.8846 1.8611 22.9013 1.83763 22.9272C1.81416 22.9531 1.79945 22.9865 1.79582 23.0223C1.7922 23.0581 1.79987 23.0941 1.81762 23.1248C3.75695 26.4922 5.5804 29.9341 7.45327 33.3433C7.78899 33.954 7.70378 34.4283 8.57972 34.3883C10.1544 34.3144 11.729 34.3126 13.3036 34.3828C13.774 34.4028 15.3981 32.1294 15.773 31.6733C15.7978 31.6432 15.816 31.6077 15.8263 31.5691C15.8366 31.5306 15.8388 31.49 15.8326 31.4504C15.8264 31.4108 15.812 31.3731 15.7905 31.3399C15.769 31.3068 15.7409 31.2792 15.7082 31.2589ZM1.87386 24.0679C1.86156 24.0569 1.84627 24.0494 1.8301 24.0464C1.81392 24.0434 1.79764 24.0451 1.78347 24.0513C1.7693 24.0575 1.75794 24.0678 1.75094 24.0808C1.74394 24.0939 1.74164 24.1091 1.74434 24.1243L3.71435 34.1557C3.72998 34.235 3.77236 34.3054 3.83337 34.3533C3.89439 34.4013 3.96973 34.4235 4.04496 34.4155C5.05155 34.315 6.08427 34.3101 7.14311 34.401C7.25673 34.4107 7.34932 34.395 7.42089 34.3538C7.43521 34.3452 7.4478 34.3337 7.4579 34.3199C7.46801 34.3062 7.47542 34.2904 7.47972 34.2736C7.48401 34.2569 7.48508 34.2394 7.48288 34.2222C7.48068 34.2051 7.47525 34.1886 7.46691 34.1738C5.7173 31.0396 4.03246 27.9054 2.41237 24.7712C2.28059 24.5168 2.10108 24.2824 1.87386 24.0679ZM20.3589 34.0121C19.0501 33.284 17.7606 32.5141 16.4904 31.7023C16.4448 31.673 16.3908 31.6621 16.3381 31.6714C16.2853 31.6807 16.2373 31.7097 16.2024 31.7532L14.2188 34.2229C14.2051 34.2395 14.1964 34.2601 14.1937 34.282C14.1911 34.3039 14.1946 34.3262 14.2038 34.3461C14.2131 34.366 14.2277 34.3827 14.2458 34.3941C14.2639 34.4055 14.2847 34.411 14.3057 34.4101C16.3336 34.2974 18.3604 34.3011 20.3861 34.421C20.4068 34.4222 20.4274 34.4182 20.4463 34.4094C20.4653 34.4005 20.482 34.3871 20.4953 34.3702C20.5085 34.3533 20.5179 34.3333 20.5226 34.3118C20.5273 34.2903 20.5273 34.268 20.5225 34.2465C20.4997 34.1387 20.4452 34.0606 20.3589 34.0121ZM4.77604 34.6954C4.74064 34.6939 4.70576 34.7049 4.67687 34.7268C4.64798 34.7487 4.62671 34.7802 4.61638 34.8163C4.60606 34.8525 4.60726 34.8912 4.61981 34.9266C4.63236 34.9619 4.65553 34.9918 4.68572 35.0116L9.17106 37.9429C9.20141 37.9631 9.23722 37.9718 9.27279 37.9678C9.30835 37.9637 9.34163 37.9471 9.36731 37.9206C9.39299 37.894 9.4096 37.8591 9.41449 37.8213C9.41938 37.7835 9.41228 37.7451 9.39431 37.7121L7.91851 34.9117C7.90495 34.8866 7.88564 34.8656 7.86239 34.8506C7.83914 34.8357 7.81271 34.8273 7.78558 34.8263L4.77604 34.6954ZM9.12335 34.7408C8.94782 34.739 8.60869 34.6336 8.39226 34.7626C8.36992 34.7761 8.35041 34.7943 8.33493 34.8161C8.31945 34.8379 8.30833 34.8629 8.30226 34.8894C8.29619 34.916 8.2953 34.9436 8.29964 34.9706C8.30398 34.9975 8.31347 35.0233 8.3275 35.0461C8.90124 36.002 9.43123 36.9785 9.91748 37.9756C10.0453 38.2409 10.3009 38.5208 10.5446 38.1973C11.3138 37.1736 12.1471 36.1462 13.0446 35.1152C13.072 35.084 13.0902 35.0449 13.0969 35.0028C13.1036 34.9607 13.0986 34.9173 13.0825 34.8782C13.0663 34.8391 13.0397 34.806 13.006 34.7828C12.9723 34.7597 12.933 34.7476 12.8929 34.7481C11.6705 34.7554 10.414 34.753 9.12335 34.7408Z" stroke="#11988A" stroke-width="2" stroke-linecap="round" stroke-linejoin="round" mask="url(#path-1-outside-1_211_20062)"/>
</svg>
